<svg width="39" height="38" viewBox="0 0 39 38" fill="none" xmlns="http://www.w3.org/2000/svg">
<path d="M29.5001 1.91248C29.5006 1.6278 29.4166 1.34938 29.2586 1.11251C29.1007 0.875638 28.876 0.690993 28.613 0.58198C28.3501 0.472967 28.0606 0.444496 27.7814 0.500175C27.5023 0.555855 27.2459 0.693177 27.0448 0.894735L21.2948 6.64473C21.1614 6.77848 21.0557 6.9372 20.9837 7.11183C20.9116 7.28647 20.8748 7.47358 20.8751 7.66248V15.6924L18.7447 17.8199C18.3185 17.7068 17.8721 17.693 17.4398 17.7797C17.0074 17.8663 16.6008 18.051 16.2511 18.3196C15.9014 18.5882 15.618 18.9335 15.4228 19.3288C15.2276 19.7242 15.1257 20.1591 15.1251 20.6C15.1253 21.0091 15.2128 21.4135 15.3818 21.7862C15.5508 22.1588 15.7974 22.491 16.1051 22.7607C16.4127 23.0304 16.7745 23.2313 17.166 23.35C17.5576 23.4687 17.9699 23.5025 18.3756 23.449C18.7812 23.3956 19.1708 23.2562 19.5183 23.0401C19.8657 22.8241 20.1631 22.5363 20.3904 22.1962C20.6177 21.856 20.7699 21.4712 20.8366 21.0675C20.9033 20.6639 20.8831 20.2506 20.7773 19.8554L22.9077 17.725H30.9376C31.1265 17.7253 31.3136 17.6884 31.4882 17.6164C31.6629 17.5444 31.8216 17.4386 31.9553 17.3052L37.7053 11.5552C37.9069 11.3542 38.0442 11.0978 38.0999 10.8186C38.1556 10.5394 38.1271 10.25 38.0181 9.98703C37.9091 9.72404 37.7244 9.49935 37.4876 9.34143C37.2507 9.18351 36.9723 9.09947 36.6876 9.09998H29.5001V1.91248ZM35.0891 18.2367C35.5838 21.8166 34.9417 25.4614 33.2534 28.6567C31.5652 31.852 28.916 34.4364 25.6799 36.045C22.4437 37.6536 18.7841 38.2052 15.2176 37.622C11.6511 37.0388 8.35785 35.3502 5.8027 32.7945C3.24755 30.2389 1.55958 26.9453 0.977054 23.3787C0.394532 19.812 0.946883 16.1525 2.55614 12.9167C4.16539 9.68093 6.75027 7.03226 9.94588 5.34461C13.1415 3.65696 16.7865 3.01557 20.3662 3.51098L19.2651 4.61211C18.8642 5.01252 18.5461 5.48802 18.329 6.01142C18.112 6.53482 18.0002 7.09586 18.0001 7.66248C15.4413 7.66248 12.94 8.42126 10.8124 9.84285C8.68484 11.2644 7.02661 13.285 6.0474 15.649C5.06819 18.013 4.81198 20.6143 5.31118 23.124C5.81038 25.6336 7.04255 27.9388 8.85189 29.7482C10.6612 31.5575 12.9665 32.7897 15.4761 33.2889C17.9857 33.7881 20.587 33.5319 22.9511 32.5527C25.3151 31.5735 27.3356 29.9152 28.7572 27.7877C30.1788 25.6601 30.9376 23.1588 30.9376 20.6C32.0809 20.599 33.1771 20.144 33.9851 19.335L35.0891 18.2367ZM18.0001 10.5375C16.0099 10.5375 14.0644 11.1276 12.4097 12.2333C10.7549 13.339 9.46516 14.9106 8.70355 16.7492C7.94194 18.5879 7.74267 20.6111 8.13094 22.5631C8.5192 24.515 9.47756 26.308 10.8848 27.7152C12.2921 29.1225 14.0851 30.0809 16.037 30.4691C17.9889 30.8574 20.0122 30.6581 21.8508 29.8965C23.6895 29.1349 25.2611 27.8452 26.3668 26.1904C27.4724 24.5356 28.0626 22.5902 28.0626 20.6H24.098L23.7386 20.9594C23.6695 22.0639 23.2831 23.1249 22.6258 24.0153C21.9686 24.9056 21.0684 25.5874 20.0332 25.9787C18.9981 26.3701 17.872 26.4544 16.7901 26.2216C15.7082 25.9887 14.7165 25.4486 13.9339 24.6661C13.1514 23.8836 12.6113 22.8919 12.3785 21.81C12.1457 20.7281 12.23 19.602 12.6214 18.5669C13.0127 17.5317 13.6945 16.6315 14.5848 15.9742C15.4751 15.317 16.5362 14.9306 17.6407 14.8615L18.0001 14.5021V10.5375Z" fill="white"/>
</svg>
