<svg width="46" height="43" viewBox="0 0 46 43" fill="none" xmlns="http://www.w3.org/2000/svg">
<path fill-rule="evenodd" clip-rule="evenodd" d="M6.90002 42.2H39.1001C41.6899 42.2 43.5299 41.0707 44.6477 39.5182C45.6781 38.0853 46.0001 36.4362 46.0001 35.3V21.5C46.0001 20.89 45.7578 20.305 45.3265 19.8736C44.8951 19.4423 44.3101 19.2 43.7001 19.2H36.8001V7.69994C36.8001 5.86994 36.0731 4.1149 34.7791 2.82089C33.4851 1.52689 31.7301 0.799927 29.9001 0.799927H6.90002C5.07002 0.799927 3.31497 1.52689 2.02097 2.82089C0.726964 4.1149 0 5.86994 0 7.69994V35.3C0 36.4339 0.322001 38.0853 1.3524 39.5182C2.47021 41.073 4.31021 42.2 6.90002 42.2ZM39.1001 23.8C39.7101 23.8 40.2951 24.0423 40.7264 24.4736C41.1578 24.905 41.4001 25.49 41.4001 26.1V35.3C41.4001 35.91 41.1578 36.495 40.7264 36.9264C40.2951 37.3577 39.7101 37.6 39.1001 37.6C38.4901 37.6 37.9051 37.3577 37.4737 36.9264C37.0424 36.495 36.8001 35.91 36.8001 35.3V26.1C36.8001 25.49 37.0424 24.905 37.4737 24.4736C37.9051 24.0423 38.4901 23.8 39.1001 23.8ZM16.1 16.9C16.1 16.29 16.3424 15.7049 16.7737 15.2736C17.205 14.8423 17.79 14.6 18.4 14.6C19.01 14.6 19.5951 14.8423 20.0264 15.2736C20.4577 15.7049 20.7 16.29 20.7 16.9C20.7 17.51 20.4577 18.095 20.0264 18.5263C19.5951 18.9576 19.01 19.2 18.4 19.2C17.79 19.2 17.205 18.9576 16.7737 18.5263C16.3424 18.095 16.1 17.51 16.1 16.9ZM18.4 9.99995C16.57 9.99995 14.815 10.7269 13.521 12.0209C12.227 13.3149 11.5 15.07 11.5 16.9C11.5 18.73 12.227 20.485 13.521 21.779C14.815 23.073 16.57 23.8 18.4 23.8C20.23 23.8 21.9851 23.073 23.2791 21.779C24.5731 20.485 25.3001 18.73 25.3001 16.9C25.3001 15.07 24.5731 13.3149 23.2791 12.0209C21.9851 10.7269 20.23 9.99995 18.4 9.99995ZM11.5 28.4C10.89 28.4 10.305 28.6423 9.87368 29.0736C9.44234 29.505 9.20002 30.09 9.20002 30.7C9.20002 31.31 9.44234 31.895 9.87368 32.3263C10.305 32.7577 10.89 33 11.5 33H25.3001C25.9101 33 26.4951 32.7577 26.9264 32.3263C27.3577 31.895 27.6001 31.31 27.6001 30.7C27.6001 30.09 27.3577 29.505 26.9264 29.0736C26.4951 28.6423 25.9101 28.4 25.3001 28.4H11.5Z" fill="white"/>
</svg>
