<svg width="39" height="37" viewBox="0 0 39 37" fill="none" xmlns="http://www.w3.org/2000/svg">
<path d="M20.1501 0.199976C19.8451 0.199976 19.5526 0.321137 19.3369 0.536803C19.1213 0.75247 19.0001 1.04498 19.0001 1.34998V7.32998C19.0001 10.4971 21.1322 13.1628 24.0371 13.977C23.5311 20.279 21.7095 24.9825 20.2168 27.8828C20.64 28.3796 21.0379 28.7499 21.3484 29.0098C22.5421 30.008 23.6001 31.6341 23.6001 33.6627C23.6016 34.8636 23.2179 36.0333 22.5053 37H35.1001C36.0151 37 36.8926 36.6365 37.5396 35.9895C38.1866 35.3425 38.5501 34.465 38.5501 33.55V32.8439C38.5501 32.0435 38.2764 31.3052 37.8555 30.7003C36.6135 28.9132 33.0968 23.1333 32.3608 13.9747C33.8105 13.5683 35.0876 12.699 35.9974 11.4994C36.9072 10.2998 37.3998 8.83558 37.4001 7.32998V1.34998C37.4001 1.04498 37.2789 0.75247 37.0633 0.536803C36.8476 0.321137 36.5551 0.199976 36.2501 0.199976H34.5251C34.0676 0.199976 33.6288 0.381716 33.3053 0.705217C32.9818 1.02872 32.8001 1.46748 32.8001 1.92498V3.64998C32.8004 3.801 32.771 3.9506 32.7134 4.09024C32.6559 4.22988 32.5715 4.35682 32.4649 4.46382C32.2497 4.67992 31.9574 4.80167 31.6524 4.80228C31.3474 4.80289 31.0546 4.68231 30.8386 4.46708C30.6225 4.25184 30.5007 3.95958 30.5001 3.65458V3.64998L30.4909 1.91578C30.4885 1.45987 30.3057 1.02347 29.9824 0.70196C29.6592 0.380447 29.2218 0.199969 28.7659 0.199976H27.6343C27.1784 0.199969 26.741 0.380447 26.4178 0.70196C26.0945 1.02347 25.9117 1.45987 25.9093 1.91578L25.9001 3.65458C25.8995 3.95958 25.7777 4.25184 25.5616 4.46708C25.3455 4.68231 25.0528 4.80289 24.7478 4.80228C24.4428 4.80167 24.1505 4.67992 23.9353 4.46382C23.7201 4.24772 23.5995 3.95497 23.6001 3.64998V1.92498C23.6001 1.46748 23.4184 1.02872 23.0949 0.705217C22.7714 0.381716 22.3326 0.199976 21.8751 0.199976H20.1501ZM10.9501 7.09998C9.61812 7.10001 8.31462 7.48556 7.19694 8.2101C6.07926 8.93465 5.19518 9.9672 4.65141 11.1831C4.10765 12.3991 3.92744 13.7464 4.13255 15.0625C4.33766 16.3786 4.91931 17.6072 5.8073 18.6H5.2001C4.5901 18.6 4.00509 18.8423 3.57375 19.2736C3.14242 19.705 2.9001 20.29 2.9001 20.9C2.9001 21.51 3.14242 22.095 3.57375 22.5263C4.00509 22.9577 4.5901 23.2 5.2001 23.2H6.3961C5.5405 27.3354 3.2842 29.7228 2.0261 30.7739C1.2303 31.4409 0.600098 32.4667 0.600098 33.6627C0.600098 35.505 2.0951 37 3.9374 37H17.9651C19.8051 37 21.3001 35.505 21.3001 33.6627C21.3001 32.4667 20.6699 31.4409 19.8741 30.7739C18.616 29.7228 16.3597 27.3354 15.5041 23.2H16.7001C17.3101 23.2 17.8951 22.9577 18.3264 22.5263C18.7578 22.095 19.0001 21.51 19.0001 20.9C19.0001 20.29 18.7578 19.705 18.3264 19.2736C17.8951 18.8423 17.3101 18.6 16.7001 18.6H16.0929C16.9809 17.6072 17.5625 16.3786 17.7676 15.0625C17.9728 13.7464 17.7925 12.3991 17.2488 11.1831C16.705 9.9672 15.8209 8.93465 14.7033 8.2101C13.5856 7.48556 12.2821 7.10001 10.9501 7.09998Z" fill="white"/>
</svg>
